<svg xmlns="http://www.w3.org/2000/svg" xmlns:xlink="http://www.w3.org/1999/xlink" width="500" zoomAndPan="magnify" viewBox="0 0 375 374.999991" height="500" preserveAspectRatio="xMidYMid meet" version="1.0"><defs><g/><clipPath id="id1"><path d="M 112.5 122 L 138 122 L 138 199.914062 L 112.5 199.914062 Z M 112.5 122 " clip-rule="nonzero"/></clipPath><clipPath id="id2"><path d="M 237.703125 122.40625 L 262.496094 122.40625 L 262.496094 199.910156 L 237.703125 199.910156 Z M 237.703125 122.40625 " clip-rule="nonzero"/></clipPath><clipPath id="id3"><path d="M 175 104.664062 L 200 104.664062 L 200 131 L 175 131 Z M 175 104.664062 " clip-rule="nonzero"/></clipPath></defs><path fill="#fff559" d="M 163.644531 148.097656 C 161.804688 148.097656 160.089844 148.445312 158.5 149.140625 C 156.90625 149.835938 155.527344 150.773438 154.359375 151.953125 C 153.191406 153.132812 152.265625 154.519531 151.582031 156.109375 C 150.898438 157.699219 150.558594 159.390625 150.558594 161.179688 C 150.558594 162.96875 150.898438 164.660156 151.582031 166.25 C 152.265625 167.839844 153.191406 169.226562 154.359375 170.40625 C 155.527344 171.585938 156.90625 172.523438 158.5 173.21875 C 160.089844 173.914062 161.804688 174.261719 163.644531 174.261719 C 165.457031 174.261719 167.160156 173.914062 168.75 173.21875 C 170.339844 172.523438 171.726562 171.578125 172.90625 170.386719 C 174.085938 169.195312 175.015625 167.808594 175.699219 166.230469 C 176.382812 164.652344 176.726562 162.96875 176.726562 161.179688 C 176.726562 159.390625 176.382812 157.707031 175.699219 156.128906 C 175.015625 154.550781 174.085938 153.164062 172.90625 151.972656 C 171.726562 150.78125 170.339844 149.835938 168.75 149.140625 C 167.160156 148.445312 165.457031 148.097656 163.644531 148.097656 Z M 184.515625 161.179688 C 184.515625 166.996094 182.476562 171.914062 178.402344 175.941406 C 174.277344 180.015625 169.359375 182.054688 163.644531 182.054688 C 157.875 182.054688 152.957031 180.015625 148.882812 175.941406 C 144.804688 171.867188 142.769531 166.945312 142.769531 161.179688 C 142.769531 155.414062 144.804688 150.496094 148.882812 146.417969 C 152.957031 142.34375 157.875 140.304688 163.644531 140.304688 C 169.359375 140.304688 174.277344 142.34375 178.402344 146.417969 C 180.441406 148.457031 181.964844 150.707031 182.96875 153.164062 C 183.976562 155.625 184.492188 158.296875 184.515625 161.179688 " fill-opacity="1" fill-rule="nonzero"/><path fill="#fff559" d="M 211.355469 148.097656 C 209.515625 148.097656 207.800781 148.445312 206.210938 149.140625 C 204.621094 149.835938 203.242188 150.773438 202.074219 151.953125 C 200.90625 153.132812 199.980469 154.519531 199.296875 156.109375 C 198.613281 157.699219 198.273438 159.390625 198.273438 161.179688 C 198.273438 162.96875 198.613281 164.660156 199.296875 166.25 C 199.980469 167.839844 200.90625 169.226562 202.074219 170.40625 C 203.242188 171.585938 204.621094 172.523438 206.210938 173.21875 C 207.800781 173.914062 209.515625 174.261719 211.355469 174.261719 C 213.167969 174.261719 214.871094 173.914062 216.460938 173.21875 C 218.050781 172.523438 219.4375 171.578125 220.617188 170.386719 C 221.796875 169.195312 222.730469 167.808594 223.414062 166.230469 C 224.097656 164.652344 224.4375 162.96875 224.4375 161.179688 C 224.4375 159.390625 224.097656 157.707031 223.414062 156.128906 C 222.730469 154.550781 221.796875 153.164062 220.617188 151.972656 C 219.4375 150.78125 218.050781 149.835938 216.460938 149.140625 C 214.871094 148.445312 213.167969 148.097656 211.355469 148.097656 Z M 232.230469 161.179688 C 232.230469 166.996094 230.191406 171.914062 226.117188 175.941406 C 221.992188 180.015625 217.070312 182.054688 211.355469 182.054688 C 205.589844 182.054688 200.667969 180.015625 196.59375 175.941406 C 192.519531 171.867188 190.480469 166.945312 190.480469 161.179688 C 190.480469 155.414062 192.519531 150.496094 196.59375 146.417969 C 200.667969 142.34375 205.589844 140.304688 211.355469 140.304688 C 217.070312 140.304688 221.992188 142.34375 226.117188 146.417969 C 228.152344 148.457031 229.675781 150.707031 230.683594 153.164062 C 231.6875 155.625 232.203125 158.296875 232.230469 161.179688 " fill-opacity="1" fill-rule="nonzero"/><g clip-path="url(#id1)"><path fill="#a0f8ee" d="M 133.375 122.449219 C 134.492188 122.449219 135.417969 122.828125 136.152344 123.585938 C 136.882812 124.34375 137.25 125.269531 137.25 126.363281 C 137.25 127.484375 136.882812 128.410156 136.152344 129.140625 C 135.417969 129.875 134.492188 130.242188 133.375 130.242188 C 130.292969 130.242188 128.753906 131.78125 128.753906 134.863281 L 128.753906 152.679688 C 128.753906 156.257812 127.933594 159.09375 126.292969 161.179688 C 127.933594 163.265625 128.753906 166.101562 128.753906 169.679688 L 128.753906 187.496094 C 128.753906 190.578125 130.292969 192.121094 133.375 192.121094 C 134.492188 192.121094 135.417969 192.484375 136.152344 193.21875 C 136.882812 193.953125 137.25 194.875 137.25 195.996094 C 137.25 197.113281 136.882812 198.046875 136.152344 198.792969 C 135.417969 199.535156 134.492188 199.910156 133.375 199.910156 C 125.097656 199.910156 120.960938 195.773438 120.960938 187.496094 L 120.960938 169.679688 C 120.960938 166.597656 119.433594 165.054688 116.375 165.054688 C 115.257812 165.054688 114.332031 164.691406 113.597656 163.957031 C 112.867188 163.222656 112.5 162.296875 112.5 161.179688 C 112.5 160.0625 112.867188 159.136719 113.597656 158.402344 C 114.332031 157.671875 115.257812 157.304688 116.375 157.304688 C 119.433594 157.304688 120.960938 155.761719 120.960938 152.679688 L 120.960938 134.863281 C 120.960938 126.585938 125.097656 122.449219 133.375 122.449219 " fill-opacity="1" fill-rule="nonzero"/></g><g clip-path="url(#id2)"><path fill="#a0f8ee" d="M 254.035156 134.863281 L 254.035156 152.679688 C 254.035156 155.761719 255.5625 157.304688 258.621094 157.304688 C 259.738281 157.304688 260.664062 157.671875 261.398438 158.402344 C 262.132812 159.136719 262.496094 160.0625 262.496094 161.179688 C 262.496094 162.296875 262.132812 163.222656 261.398438 163.957031 C 260.664062 164.691406 259.738281 165.054688 258.621094 165.054688 C 255.5625 165.054688 254.035156 166.597656 254.035156 169.679688 L 254.035156 187.496094 C 254.035156 195.773438 249.898438 199.910156 241.621094 199.910156 C 240.503906 199.910156 239.578125 199.535156 238.84375 198.792969 C 238.113281 198.046875 237.746094 197.113281 237.746094 195.996094 C 237.746094 194.875 238.113281 193.953125 238.84375 193.21875 C 239.578125 192.484375 240.503906 192.121094 241.621094 192.121094 C 244.703125 192.121094 246.246094 190.578125 246.246094 187.496094 L 246.246094 169.679688 C 246.246094 166.101562 247.066406 163.265625 248.707031 161.179688 C 247.066406 159.09375 246.246094 156.257812 246.246094 152.679688 L 246.246094 134.863281 C 246.246094 131.78125 244.703125 130.242188 241.621094 130.242188 C 240.503906 130.242188 239.578125 129.875 238.84375 129.140625 C 238.113281 128.410156 237.746094 127.484375 237.746094 126.363281 C 237.746094 125.269531 238.113281 124.34375 238.84375 123.585938 C 239.578125 122.828125 240.503906 122.449219 241.621094 122.449219 C 249.898438 122.449219 254.035156 126.585938 254.035156 134.863281 " fill-opacity="1" fill-rule="nonzero"/></g><g clip-path="url(#id3)"><path fill="#a0f8ee" d="M 199.167969 125.539062 C 199.167969 126.1875 199.042969 126.789062 198.792969 127.347656 C 198.542969 127.90625 198.214844 128.398438 197.804688 128.820312 C 197.394531 129.242188 196.902344 129.574219 196.332031 129.808594 C 195.761719 130.046875 195.164062 130.164062 194.542969 130.164062 C 193.398438 130.164062 192.417969 129.765625 191.597656 128.96875 C 190.777344 128.175781 190.109375 127.199219 189.585938 126.042969 C 189.0625 124.886719 188.683594 123.695312 188.449219 122.464844 C 188.214844 121.234375 188.09375 120.085938 188.09375 119.019531 C 188.09375 114.617188 189.972656 110.171875 193.722656 105.671875 C 194.394531 105 195.152344 104.667969 195.996094 104.667969 C 196.867188 104.667969 197.613281 104.976562 198.234375 105.597656 C 198.855469 106.21875 199.167969 106.964844 199.167969 107.835938 C 199.167969 108.257812 199.078125 108.691406 198.90625 109.140625 C 197.785156 111.875 197.226562 114.46875 197.226562 116.929688 C 197.226562 119.265625 197.734375 121.527344 198.753906 123.714844 C 199.03125 124.335938 199.167969 124.945312 199.167969 125.539062 Z M 186.902344 125.539062 C 186.902344 126.1875 186.777344 126.789062 186.53125 127.347656 C 186.28125 127.90625 185.953125 128.398438 185.542969 128.820312 C 185.132812 129.242188 184.640625 129.574219 184.070312 129.808594 C 183.496094 130.046875 182.902344 130.164062 182.28125 130.164062 C 181.136719 130.164062 180.15625 129.765625 179.335938 128.96875 C 178.515625 128.175781 177.84375 127.199219 177.324219 126.042969 C 176.800781 124.886719 176.421875 123.695312 176.183594 122.464844 C 175.949219 121.234375 175.832031 120.085938 175.832031 119.019531 C 175.832031 114.617188 177.707031 110.171875 181.460938 105.671875 C 182.128906 105 182.886719 104.667969 183.734375 104.667969 C 184.601562 104.667969 185.347656 104.976562 185.96875 105.597656 C 186.589844 106.21875 186.902344 106.964844 186.902344 107.835938 C 186.902344 108.257812 186.816406 108.691406 186.640625 109.140625 C 185.523438 111.875 184.964844 114.46875 184.964844 116.929688 C 184.964844 119.265625 185.472656 121.527344 186.492188 123.714844 C 186.765625 124.335938 186.902344 124.945312 186.902344 125.539062 " fill-opacity="1" fill-rule="nonzero"/></g><g fill="#ff66c4" fill-opacity="1"><g transform="translate(131.148299, 229.044652)"><g><path d="M 7.140625 2.0625 C 6.554688 2.0625 6 1.875 5.46875 1.5 C 4.9375 1.125 4.5 0.585938 4.15625 -0.109375 C 3.8125 -0.804688 3.640625 -1.613281 3.640625 -2.53125 C 3.640625 -5.269531 4.066406 -7.875 4.921875 -10.34375 C 5.898438 -13.238281 6.929688 -15.492188 8.015625 -17.109375 C 9.109375 -18.734375 10.15625 -19.859375 11.15625 -20.484375 C 11.46875 -20.671875 11.9375 -20.859375 12.5625 -21.046875 C 13.1875 -21.234375 13.8125 -21.328125 14.4375 -21.328125 C 14.769531 -21.328125 15.148438 -21.296875 15.578125 -21.234375 C 16.453125 -21.003906 17.3125 -20.609375 18.15625 -20.046875 C 19 -19.484375 19.421875 -18.867188 19.421875 -18.203125 C 19.421875 -17.867188 19.234375 -17.53125 18.859375 -17.1875 C 18.484375 -16.84375 18.097656 -16.671875 17.703125 -16.671875 C 17.492188 -16.671875 17.335938 -16.734375 17.234375 -16.859375 C 16.835938 -17.421875 16.441406 -17.84375 16.046875 -18.125 C 15.660156 -18.40625 15.1875 -18.546875 14.625 -18.546875 C 13.101562 -18.546875 11.738281 -17.601562 10.53125 -15.71875 C 9.332031 -13.84375 8.378906 -11.644531 7.671875 -9.125 C 6.960938 -6.613281 6.554688 -4.488281 6.453125 -2.75 C 6.453125 -2.082031 6.546875 -1.59375 6.734375 -1.28125 C 6.921875 -0.96875 7.253906 -0.8125 7.734375 -0.8125 C 8.523438 -0.8125 9.453125 -1.117188 10.515625 -1.734375 C 11.585938 -2.347656 12.476562 -3.203125 13.1875 -4.296875 C 14.082031 -5.984375 14.53125 -7.117188 14.53125 -7.703125 C 14.53125 -8.035156 14.375 -8.203125 14.0625 -8.203125 C 13.019531 -8.203125 12.269531 -8.242188 11.8125 -8.328125 C 11.351562 -8.410156 11.050781 -8.609375 10.90625 -8.921875 C 10.632812 -9.003906 10.5 -9.207031 10.5 -9.53125 C 10.5 -10.007812 10.707031 -10.363281 11.125 -10.59375 C 11.539062 -10.820312 12.269531 -10.9375 13.3125 -10.9375 C 14.1875 -10.914062 14.894531 -10.828125 15.4375 -10.671875 C 15.988281 -10.515625 16.429688 -10.203125 16.765625 -9.734375 C 17.097656 -9.273438 17.265625 -8.609375 17.265625 -7.734375 C 17.265625 -7.359375 17.234375 -7.015625 17.171875 -6.703125 C 16.773438 -4.910156 15.984375 -3.347656 14.796875 -2.015625 C 13.617188 -0.691406 12.316406 0.316406 10.890625 1.015625 C 9.472656 1.710938 8.222656 2.0625 7.140625 2.0625 Z M 7.140625 2.0625 "/></g></g></g><g fill="#ff66c4" fill-opacity="1"><g transform="translate(146.952463, 229.044652)"><g><path d="M 5.234375 -0.21875 C 4.984375 -0.21875 4.785156 -0.257812 4.640625 -0.34375 C 4.492188 -0.425781 4.285156 -0.582031 4.015625 -0.8125 C 3.597656 -1.25 3.273438 -1.703125 3.046875 -2.171875 C 2.828125 -2.640625 2.75 -3.046875 2.8125 -3.390625 C 2.875 -3.535156 2.898438 -3.679688 2.890625 -3.828125 C 2.878906 -3.972656 2.875 -4.066406 2.875 -4.109375 C 2.789062 -4.191406 2.75 -4.25 2.75 -4.28125 C 2.75 -4.3125 2.769531 -4.34375 2.8125 -4.375 C 2.851562 -4.40625 2.882812 -4.441406 2.90625 -4.484375 C 3.03125 -4.484375 3.070312 -4.597656 3.03125 -4.828125 C 2.988281 -4.992188 3.054688 -5.359375 3.234375 -5.921875 C 3.421875 -6.484375 3.660156 -7.003906 3.953125 -7.484375 C 4.179688 -7.859375 4.519531 -8.320312 4.96875 -8.875 C 5.414062 -9.4375 5.816406 -9.863281 6.171875 -10.15625 C 7.210938 -11.050781 8.148438 -11.59375 8.984375 -11.78125 C 9.390625 -11.882812 9.789062 -11.9375 10.1875 -11.9375 C 10.789062 -11.9375 11.257812 -11.769531 11.59375 -11.4375 C 12.050781 -11.25 12.382812 -10.976562 12.59375 -10.625 C 12.800781 -10.269531 12.9375 -9.804688 13 -9.234375 C 13.019531 -9.109375 13.03125 -8.898438 13.03125 -8.609375 C 13.03125 -7.066406 12.445312 -5.460938 11.28125 -3.796875 C 10.800781 -3.117188 10.320312 -2.570312 9.84375 -2.15625 C 9.375 -1.738281 8.796875 -1.320312 8.109375 -0.90625 C 7.734375 -0.65625 7.335938 -0.488281 6.921875 -0.40625 C 6.503906 -0.320312 5.941406 -0.257812 5.234375 -0.21875 Z M 8.421875 -4.015625 C 8.816406 -4.367188 9.097656 -4.726562 9.265625 -5.09375 C 9.441406 -5.457031 9.695312 -6.097656 10.03125 -7.015625 C 10.15625 -7.203125 10.21875 -7.578125 10.21875 -8.140625 C 10.21875 -8.640625 10.144531 -8.921875 10 -8.984375 C 9.894531 -9.066406 9.769531 -9.109375 9.625 -9.109375 C 9.4375 -9.109375 9.140625 -8.960938 8.734375 -8.671875 C 8.003906 -8.046875 7.394531 -7.394531 6.90625 -6.71875 C 6.414062 -6.039062 6.078125 -5.265625 5.890625 -4.390625 C 5.867188 -4.304688 5.859375 -4.179688 5.859375 -4.015625 C 5.859375 -3.316406 6.109375 -2.96875 6.609375 -2.96875 C 7.085938 -2.96875 7.691406 -3.316406 8.421875 -4.015625 Z M 8.421875 -4.015625 "/></g></g></g><g fill="#ff66c4" fill-opacity="1"><g transform="translate(158.236692, 229.044652)"><g><path d="M 5.234375 -0.21875 C 4.984375 -0.21875 4.785156 -0.257812 4.640625 -0.34375 C 4.492188 -0.425781 4.285156 -0.582031 4.015625 -0.8125 C 3.597656 -1.25 3.273438 -1.703125 3.046875 -2.171875 C 2.828125 -2.640625 2.75 -3.046875 2.8125 -3.390625 C 2.875 -3.535156 2.898438 -3.679688 2.890625 -3.828125 C 2.878906 -3.972656 2.875 -4.066406 2.875 -4.109375 C 2.789062 -4.191406 2.75 -4.25 2.75 -4.28125 C 2.75 -4.3125 2.769531 -4.34375 2.8125 -4.375 C 2.851562 -4.40625 2.882812 -4.441406 2.90625 -4.484375 C 3.03125 -4.484375 3.070312 -4.597656 3.03125 -4.828125 C 2.988281 -4.992188 3.054688 -5.359375 3.234375 -5.921875 C 3.421875 -6.484375 3.660156 -7.003906 3.953125 -7.484375 C 4.179688 -7.859375 4.519531 -8.320312 4.96875 -8.875 C 5.414062 -9.4375 5.816406 -9.863281 6.171875 -10.15625 C 7.210938 -11.050781 8.148438 -11.59375 8.984375 -11.78125 C 9.390625 -11.882812 9.789062 -11.9375 10.1875 -11.9375 C 10.789062 -11.9375 11.257812 -11.769531 11.59375 -11.4375 C 12.050781 -11.25 12.382812 -10.976562 12.59375 -10.625 C 12.800781 -10.269531 12.9375 -9.804688 13 -9.234375 C 13.019531 -9.109375 13.03125 -8.898438 13.03125 -8.609375 C 13.03125 -7.066406 12.445312 -5.460938 11.28125 -3.796875 C 10.800781 -3.117188 10.320312 -2.570312 9.84375 -2.15625 C 9.375 -1.738281 8.796875 -1.320312 8.109375 -0.90625 C 7.734375 -0.65625 7.335938 -0.488281 6.921875 -0.40625 C 6.503906 -0.320312 5.941406 -0.257812 5.234375 -0.21875 Z M 8.421875 -4.015625 C 8.816406 -4.367188 9.097656 -4.726562 9.265625 -5.09375 C 9.441406 -5.457031 9.695312 -6.097656 10.03125 -7.015625 C 10.15625 -7.203125 10.21875 -7.578125 10.21875 -8.140625 C 10.21875 -8.640625 10.144531 -8.921875 10 -8.984375 C 9.894531 -9.066406 9.769531 -9.109375 9.625 -9.109375 C 9.4375 -9.109375 9.140625 -8.960938 8.734375 -8.671875 C 8.003906 -8.046875 7.394531 -7.394531 6.90625 -6.71875 C 6.414062 -6.039062 6.078125 -5.265625 5.890625 -4.390625 C 5.867188 -4.304688 5.859375 -4.179688 5.859375 -4.015625 C 5.859375 -3.316406 6.109375 -2.96875 6.609375 -2.96875 C 7.085938 -2.96875 7.691406 -3.316406 8.421875 -4.015625 Z M 8.421875 -4.015625 "/></g></g></g><g fill="#ff66c4" fill-opacity="1"><g transform="translate(169.52092, 229.044652)"><g><path d="M 11.65625 0.59375 C 11.382812 0.65625 11.125 0.59375 10.875 0.40625 C 10.625 0.21875 10.4375 0 10.3125 -0.25 C 10.207031 -0.539062 10.132812 -0.828125 10.09375 -1.109375 C 10.050781 -1.390625 10.019531 -1.769531 10 -2.25 L 9.96875 -3.296875 L 8.703125 -2.15625 C 7.390625 -0.925781 6.171875 -0.3125 5.046875 -0.3125 C 4.710938 -0.375 4.289062 -0.65625 3.78125 -1.15625 C 3.28125 -1.65625 2.957031 -2.082031 2.8125 -2.4375 C 2.726562 -2.601562 2.6875 -2.859375 2.6875 -3.203125 C 2.6875 -3.992188 2.890625 -4.945312 3.296875 -6.0625 C 3.710938 -7.175781 4.234375 -8.078125 4.859375 -8.765625 C 5.316406 -9.441406 5.867188 -9.957031 6.515625 -10.3125 C 7.160156 -10.664062 7.816406 -10.84375 8.484375 -10.84375 C 9.097656 -10.84375 9.644531 -10.707031 10.125 -10.4375 C 10.414062 -10.289062 10.65625 -10.21875 10.84375 -10.21875 C 11.050781 -10.21875 11.1875 -10.351562 11.25 -10.625 C 11.269531 -10.726562 11.394531 -11.144531 11.625 -11.875 L 11.96875 -12.875 C 12.425781 -14.25 12.820312 -15.347656 13.15625 -16.171875 C 13.488281 -17.003906 13.894531 -17.921875 14.375 -18.921875 C 14.582031 -19.359375 14.800781 -19.679688 15.03125 -19.890625 C 15.257812 -20.097656 15.460938 -20.191406 15.640625 -20.171875 C 15.910156 -20.171875 16.207031 -20.082031 16.53125 -19.90625 C 16.851562 -19.726562 17.066406 -19.503906 17.171875 -19.234375 C 17.234375 -19.085938 17.265625 -18.910156 17.265625 -18.703125 C 17.265625 -18.472656 17.203125 -18.234375 17.078125 -17.984375 C 16.535156 -17.046875 15.867188 -15.515625 15.078125 -13.390625 C 14.296875 -11.273438 13.6875 -9.441406 13.25 -7.890625 C 13.082031 -7.328125 12.960938 -6.546875 12.890625 -5.546875 C 12.816406 -4.546875 12.78125 -3.570312 12.78125 -2.625 C 12.78125 -1.707031 12.8125 -1.132812 12.875 -0.90625 C 12.914062 -0.78125 12.9375 -0.613281 12.9375 -0.40625 C 12.9375 -0.0507812 12.816406 0.191406 12.578125 0.328125 C 12.335938 0.460938 12.03125 0.550781 11.65625 0.59375 Z M 6.515625 -3.171875 C 6.992188 -3.359375 7.523438 -3.671875 8.109375 -4.109375 C 8.734375 -4.566406 9.179688 -4.972656 9.453125 -5.328125 C 9.734375 -5.679688 9.957031 -6.128906 10.125 -6.671875 C 10.164062 -6.773438 10.1875 -6.921875 10.1875 -7.109375 C 10.1875 -7.484375 10.007812 -7.828125 9.65625 -8.140625 C 9.445312 -8.304688 9.210938 -8.390625 8.953125 -8.390625 C 8.515625 -8.390625 8.054688 -8.160156 7.578125 -7.703125 C 7.035156 -7.203125 6.597656 -6.644531 6.265625 -6.03125 C 5.929688 -5.414062 5.648438 -4.578125 5.421875 -3.515625 C 5.378906 -3.367188 5.398438 -3.25 5.484375 -3.15625 C 5.566406 -3.070312 5.703125 -3.03125 5.890625 -3.03125 C 6.035156 -3.03125 6.242188 -3.078125 6.515625 -3.171875 Z M 6.515625 -3.171875 "/></g></g></g><g fill="#ff66c4" fill-opacity="1"><g transform="translate(182.052028, 229.044652)"><g><path d="M 7.328125 2.0625 C 6.679688 1.832031 6.0625 1.5 5.46875 1.0625 C 4.875 0.625 4.441406 0.0703125 4.171875 -0.59375 C 3.835938 -1.53125 3.671875 -2.628906 3.671875 -3.890625 C 3.671875 -5.117188 3.742188 -6.164062 3.890625 -7.03125 C 4.035156 -7.894531 4.285156 -8.769531 4.640625 -9.65625 L 4.921875 -10.3125 C 5.253906 -11.164062 5.492188 -11.726562 5.640625 -12 C 5.992188 -12.8125 6.617188 -13.863281 7.515625 -15.15625 C 8.347656 -16.394531 9.003906 -17.320312 9.484375 -17.9375 C 9.972656 -18.550781 10.476562 -19.082031 11 -19.53125 C 11.519531 -19.976562 12.28125 -20.546875 13.28125 -21.234375 C 13.882812 -21.660156 14.625 -21.875 15.5 -21.875 C 16.175781 -21.875 16.800781 -21.707031 17.375 -21.375 C 17.945312 -21.050781 18.378906 -20.535156 18.671875 -19.828125 C 18.878906 -19.472656 18.984375 -18.984375 18.984375 -18.359375 C 18.984375 -17.359375 18.742188 -16.273438 18.265625 -15.109375 C 17.785156 -13.953125 17.210938 -13.070312 16.546875 -12.46875 C 16.398438 -12.320312 16.203125 -12.25 15.953125 -12.25 C 15.703125 -12.25 15.429688 -12.320312 15.140625 -12.46875 C 14.859375 -12.613281 14.601562 -12.789062 14.375 -13 C 14.1875 -13.351562 14.082031 -13.5625 14.0625 -13.625 C 14.039062 -13.6875 14.082031 -13.726562 14.1875 -13.75 C 14.375 -13.976562 14.648438 -14.414062 15.015625 -15.0625 C 15.378906 -15.71875 15.617188 -16.234375 15.734375 -16.609375 L 15.921875 -17.484375 C 16.046875 -18.023438 16.109375 -18.378906 16.109375 -18.546875 C 16.109375 -18.734375 16.035156 -18.898438 15.890625 -19.046875 C 15.828125 -19.109375 15.742188 -19.140625 15.640625 -19.140625 C 15.484375 -19.140625 15.195312 -19.035156 14.78125 -18.828125 C 14.300781 -18.617188 13.734375 -18.195312 13.078125 -17.5625 C 12.421875 -16.925781 11.769531 -16.175781 11.125 -15.3125 C 10.164062 -14.0625 9.429688 -13.03125 8.921875 -12.21875 C 8.421875 -11.40625 8.035156 -10.582031 7.765625 -9.75 L 7.421875 -8.953125 C 7.441406 -8.867188 7.410156 -8.660156 7.328125 -8.328125 C 7.242188 -7.992188 7.148438 -7.722656 7.046875 -7.515625 C 6.753906 -6.304688 6.609375 -5.210938 6.609375 -4.234375 C 6.609375 -3.472656 6.6875 -2.8125 6.84375 -2.25 C 7 -1.6875 7.222656 -1.269531 7.515625 -1 C 7.679688 -0.851562 7.921875 -0.78125 8.234375 -0.78125 C 8.566406 -0.78125 8.941406 -0.859375 9.359375 -1.015625 C 9.785156 -1.171875 10.238281 -1.351562 10.71875 -1.5625 C 11.195312 -1.769531 11.53125 -1.914062 11.71875 -2 C 12.195312 -2.1875 12.648438 -2.40625 13.078125 -2.65625 C 13.503906 -2.90625 13.820312 -3.128906 14.03125 -3.328125 C 14.570312 -3.722656 15.007812 -3.921875 15.34375 -3.921875 C 15.601562 -4.003906 15.8125 -3.921875 15.96875 -3.671875 C 16.125 -3.421875 16.203125 -3.082031 16.203125 -2.65625 C 16.203125 -2.363281 16.003906 -2.015625 15.609375 -1.609375 C 15.222656 -1.203125 14.757812 -0.84375 14.21875 -0.53125 C 13.988281 -0.300781 13.476562 -0.03125 12.6875 0.28125 C 12.019531 0.757812 11.242188 1.1875 10.359375 1.5625 C 9.484375 1.9375 8.679688 2.125 7.953125 2.125 C 7.785156 2.125 7.578125 2.101562 7.328125 2.0625 Z M 7.328125 2.0625 "/></g></g></g><g fill="#ff66c4" fill-opacity="1"><g transform="translate(197.357435, 229.044652)"><g><path d="M 5.234375 -0.21875 C 4.984375 -0.21875 4.785156 -0.257812 4.640625 -0.34375 C 4.492188 -0.425781 4.285156 -0.582031 4.015625 -0.8125 C 3.597656 -1.25 3.273438 -1.703125 3.046875 -2.171875 C 2.828125 -2.640625 2.75 -3.046875 2.8125 -3.390625 C 2.875 -3.535156 2.898438 -3.679688 2.890625 -3.828125 C 2.878906 -3.972656 2.875 -4.066406 2.875 -4.109375 C 2.789062 -4.191406 2.75 -4.25 2.75 -4.28125 C 2.75 -4.3125 2.769531 -4.34375 2.8125 -4.375 C 2.851562 -4.40625 2.882812 -4.441406 2.90625 -4.484375 C 3.03125 -4.484375 3.070312 -4.597656 3.03125 -4.828125 C 2.988281 -4.992188 3.054688 -5.359375 3.234375 -5.921875 C 3.421875 -6.484375 3.660156 -7.003906 3.953125 -7.484375 C 4.179688 -7.859375 4.519531 -8.320312 4.96875 -8.875 C 5.414062 -9.4375 5.816406 -9.863281 6.171875 -10.15625 C 7.210938 -11.050781 8.148438 -11.59375 8.984375 -11.78125 C 9.390625 -11.882812 9.789062 -11.9375 10.1875 -11.9375 C 10.789062 -11.9375 11.257812 -11.769531 11.59375 -11.4375 C 12.050781 -11.25 12.382812 -10.976562 12.59375 -10.625 C 12.800781 -10.269531 12.9375 -9.804688 13 -9.234375 C 13.019531 -9.109375 13.03125 -8.898438 13.03125 -8.609375 C 13.03125 -7.066406 12.445312 -5.460938 11.28125 -3.796875 C 10.800781 -3.117188 10.320312 -2.570312 9.84375 -2.15625 C 9.375 -1.738281 8.796875 -1.320312 8.109375 -0.90625 C 7.734375 -0.65625 7.335938 -0.488281 6.921875 -0.40625 C 6.503906 -0.320312 5.941406 -0.257812 5.234375 -0.21875 Z M 8.421875 -4.015625 C 8.816406 -4.367188 9.097656 -4.726562 9.265625 -5.09375 C 9.441406 -5.457031 9.695312 -6.097656 10.03125 -7.015625 C 10.15625 -7.203125 10.21875 -7.578125 10.21875 -8.140625 C 10.21875 -8.640625 10.144531 -8.921875 10 -8.984375 C 9.894531 -9.066406 9.769531 -9.109375 9.625 -9.109375 C 9.4375 -9.109375 9.140625 -8.960938 8.734375 -8.671875 C 8.003906 -8.046875 7.394531 -7.394531 6.90625 -6.71875 C 6.414062 -6.039062 6.078125 -5.265625 5.890625 -4.390625 C 5.867188 -4.304688 5.859375 -4.179688 5.859375 -4.015625 C 5.859375 -3.316406 6.109375 -2.96875 6.609375 -2.96875 C 7.085938 -2.96875 7.691406 -3.316406 8.421875 -4.015625 Z M 8.421875 -4.015625 "/></g></g></g><g fill="#ff66c4" fill-opacity="1"><g transform="translate(208.641664, 229.044652)"><g><path d="M 11.65625 0.59375 C 11.382812 0.65625 11.125 0.59375 10.875 0.40625 C 10.625 0.21875 10.4375 0 10.3125 -0.25 C 10.207031 -0.539062 10.132812 -0.828125 10.09375 -1.109375 C 10.050781 -1.390625 10.019531 -1.769531 10 -2.25 L 9.96875 -3.296875 L 8.703125 -2.15625 C 7.390625 -0.925781 6.171875 -0.3125 5.046875 -0.3125 C 4.710938 -0.375 4.289062 -0.65625 3.78125 -1.15625 C 3.28125 -1.65625 2.957031 -2.082031 2.8125 -2.4375 C 2.726562 -2.601562 2.6875 -2.859375 2.6875 -3.203125 C 2.6875 -3.992188 2.890625 -4.945312 3.296875 -6.0625 C 3.710938 -7.175781 4.234375 -8.078125 4.859375 -8.765625 C 5.316406 -9.441406 5.867188 -9.957031 6.515625 -10.3125 C 7.160156 -10.664062 7.816406 -10.84375 8.484375 -10.84375 C 9.097656 -10.84375 9.644531 -10.707031 10.125 -10.4375 C 10.414062 -10.289062 10.65625 -10.21875 10.84375 -10.21875 C 11.050781 -10.21875 11.1875 -10.351562 11.25 -10.625 C 11.269531 -10.726562 11.394531 -11.144531 11.625 -11.875 L 11.96875 -12.875 C 12.425781 -14.25 12.820312 -15.347656 13.15625 -16.171875 C 13.488281 -17.003906 13.894531 -17.921875 14.375 -18.921875 C 14.582031 -19.359375 14.800781 -19.679688 15.03125 -19.890625 C 15.257812 -20.097656 15.460938 -20.191406 15.640625 -20.171875 C 15.910156 -20.171875 16.207031 -20.082031 16.53125 -19.90625 C 16.851562 -19.726562 17.066406 -19.503906 17.171875 -19.234375 C 17.234375 -19.085938 17.265625 -18.910156 17.265625 -18.703125 C 17.265625 -18.472656 17.203125 -18.234375 17.078125 -17.984375 C 16.535156 -17.046875 15.867188 -15.515625 15.078125 -13.390625 C 14.296875 -11.273438 13.6875 -9.441406 13.25 -7.890625 C 13.082031 -7.328125 12.960938 -6.546875 12.890625 -5.546875 C 12.816406 -4.546875 12.78125 -3.570312 12.78125 -2.625 C 12.78125 -1.707031 12.8125 -1.132812 12.875 -0.90625 C 12.914062 -0.78125 12.9375 -0.613281 12.9375 -0.40625 C 12.9375 -0.0507812 12.816406 0.191406 12.578125 0.328125 C 12.335938 0.460938 12.03125 0.550781 11.65625 0.59375 Z M 6.515625 -3.171875 C 6.992188 -3.359375 7.523438 -3.671875 8.109375 -4.109375 C 8.734375 -4.566406 9.179688 -4.972656 9.453125 -5.328125 C 9.734375 -5.679688 9.957031 -6.128906 10.125 -6.671875 C 10.164062 -6.773438 10.1875 -6.921875 10.1875 -7.109375 C 10.1875 -7.484375 10.007812 -7.828125 9.65625 -8.140625 C 9.445312 -8.304688 9.210938 -8.390625 8.953125 -8.390625 C 8.515625 -8.390625 8.054688 -8.160156 7.578125 -7.703125 C 7.035156 -7.203125 6.597656 -6.644531 6.265625 -6.03125 C 5.929688 -5.414062 5.648438 -4.578125 5.421875 -3.515625 C 5.378906 -3.367188 5.398438 -3.25 5.484375 -3.15625 C 5.566406 -3.070312 5.703125 -3.03125 5.890625 -3.03125 C 6.035156 -3.03125 6.242188 -3.078125 6.515625 -3.171875 Z M 6.515625 -3.171875 "/></g></g></g><g fill="#ff66c4" fill-opacity="1"><g transform="translate(221.172772, 229.044652)"><g><path d="M 6.953125 0 C 5.765625 0 4.804688 -0.332031 4.078125 -1 C 3.359375 -1.664062 3 -2.609375 3 -3.828125 C 3 -4.304688 3.03125 -4.835938 3.09375 -5.421875 C 3.125 -5.921875 3.320312 -6.609375 3.6875 -7.484375 C 4.050781 -8.359375 4.550781 -9.207031 5.1875 -10.03125 C 5.820312 -10.863281 6.566406 -11.476562 7.421875 -11.875 C 7.816406 -12.0625 8.148438 -12.191406 8.421875 -12.265625 C 8.691406 -12.335938 9 -12.375 9.34375 -12.375 C 10.195312 -12.375 10.890625 -12.21875 11.421875 -11.90625 C 11.953125 -11.59375 12.328125 -11.238281 12.546875 -10.84375 C 12.765625 -10.445312 12.875 -10.101562 12.875 -9.8125 L 12.875 -9.5625 C 12.875 -9.320312 12.726562 -8.867188 12.4375 -8.203125 C 12.144531 -7.535156 11.679688 -6.910156 11.046875 -6.328125 C 10.410156 -5.742188 9.597656 -5.421875 8.609375 -5.359375 C 8.109375 -5.359375 7.625 -5.40625 7.15625 -5.5 C 6.6875 -5.59375 6.390625 -5.640625 6.265625 -5.640625 C 5.953125 -5.640625 5.753906 -5.523438 5.671875 -5.296875 C 5.585938 -5.066406 5.546875 -4.679688 5.546875 -4.140625 C 5.609375 -3.554688 5.769531 -3.148438 6.03125 -2.921875 C 6.289062 -2.703125 6.671875 -2.59375 7.171875 -2.59375 C 7.421875 -2.59375 7.710938 -2.664062 8.046875 -2.8125 C 8.378906 -2.976562 8.773438 -3.234375 9.234375 -3.578125 C 9.472656 -3.785156 9.664062 -3.929688 9.8125 -4.015625 C 9.957031 -4.097656 10.132812 -4.140625 10.34375 -4.140625 C 10.53125 -4.140625 10.75 -4.015625 11 -3.765625 C 11.25 -3.515625 11.382812 -3.28125 11.40625 -3.0625 C 11.363281 -2.8125 11.132812 -2.4375 10.71875 -1.9375 C 10.300781 -1.4375 9.757812 -0.988281 9.09375 -0.59375 C 8.4375 -0.195312 7.722656 0 6.953125 0 Z M 8.046875 -7.515625 C 8.441406 -7.515625 8.710938 -7.554688 8.859375 -7.640625 C 9.066406 -7.742188 9.378906 -8.007812 9.796875 -8.4375 C 10.222656 -8.863281 10.445312 -9.160156 10.46875 -9.328125 C 10.46875 -9.523438 10.378906 -9.691406 10.203125 -9.828125 C 10.023438 -9.960938 9.78125 -10.050781 9.46875 -10.09375 L 9.140625 -10.09375 C 8.867188 -10.09375 8.476562 -9.867188 7.96875 -9.421875 C 7.457031 -8.984375 7.015625 -8.472656 6.640625 -7.890625 C 6.660156 -7.785156 6.816406 -7.695312 7.109375 -7.625 C 7.398438 -7.550781 7.710938 -7.515625 8.046875 -7.515625 Z M 8.046875 -7.515625 "/></g></g></g><g fill="#5e17eb" fill-opacity="1"><g transform="translate(152.787519, 247.324129)"><g><path d="M 2.84375 0.09375 C 1.726562 0.09375 0.847656 -0.128906 0.203125 -0.578125 L 0.71875 -1.9375 C 1.019531 -1.726562 1.359375 -1.566406 1.734375 -1.453125 C 2.117188 -1.335938 2.492188 -1.28125 2.859375 -1.28125 C 3.085938 -1.28125 3.265625 -1.3125 3.390625 -1.375 C 3.515625 -1.445312 3.578125 -1.539062 3.578125 -1.65625 C 3.578125 -1.757812 3.53125 -1.84375 3.4375 -1.90625 C 3.34375 -1.96875 3.171875 -2.023438 2.921875 -2.078125 L 2.015625 -2.28125 C 1.441406 -2.40625 1.023438 -2.59375 0.765625 -2.84375 C 0.515625 -3.09375 0.390625 -3.441406 0.390625 -3.890625 C 0.390625 -4.253906 0.492188 -4.570312 0.703125 -4.84375 C 0.921875 -5.125 1.21875 -5.34375 1.59375 -5.5 C 1.976562 -5.65625 2.414062 -5.734375 2.90625 -5.734375 C 3.3125 -5.734375 3.707031 -5.675781 4.09375 -5.5625 C 4.476562 -5.445312 4.84375 -5.285156 5.1875 -5.078125 L 4.65625 -3.75 C 4.363281 -3.9375 4.0625 -4.082031 3.75 -4.1875 C 3.4375 -4.289062 3.144531 -4.34375 2.875 -4.34375 C 2.65625 -4.34375 2.484375 -4.304688 2.359375 -4.234375 C 2.234375 -4.171875 2.171875 -4.070312 2.171875 -3.9375 C 2.171875 -3.851562 2.207031 -3.785156 2.28125 -3.734375 C 2.351562 -3.691406 2.492188 -3.644531 2.703125 -3.59375 L 3.640625 -3.390625 C 4.234375 -3.242188 4.660156 -3.035156 4.921875 -2.765625 C 5.179688 -2.503906 5.3125 -2.144531 5.3125 -1.6875 C 5.3125 -1.132812 5.09375 -0.695312 4.65625 -0.375 C 4.21875 -0.0625 3.613281 0.09375 2.84375 0.09375 Z M 2.84375 0.09375 "/></g></g></g><g fill="#5e17eb" fill-opacity="1"><g transform="translate(158.470575, 247.324129)"><g><path d="M 6.484375 -5.59375 L 6.484375 0 L 4.515625 0 L 4.515625 -0.765625 C 4.359375 -0.492188 4.125 -0.28125 3.8125 -0.125 C 3.507812 0.0195312 3.175781 0.09375 2.8125 0.09375 C 2.332031 0.09375 1.90625 -0.0195312 1.53125 -0.25 C 1.15625 -0.488281 0.863281 -0.828125 0.65625 -1.265625 C 0.445312 -1.703125 0.34375 -2.207031 0.34375 -2.78125 C 0.34375 -3.363281 0.445312 -3.878906 0.65625 -4.328125 C 0.875 -4.773438 1.164062 -5.117188 1.53125 -5.359375 C 1.90625 -5.609375 2.332031 -5.734375 2.8125 -5.734375 C 3.175781 -5.734375 3.507812 -5.65625 3.8125 -5.5 C 4.113281 -5.34375 4.347656 -5.132812 4.515625 -4.875 L 4.515625 -5.59375 Z M 3.421875 -1.390625 C 3.773438 -1.390625 4.046875 -1.507812 4.234375 -1.75 C 4.421875 -2 4.515625 -2.351562 4.515625 -2.8125 C 4.515625 -3.269531 4.421875 -3.617188 4.234375 -3.859375 C 4.046875 -4.109375 3.773438 -4.234375 3.421875 -4.234375 C 3.078125 -4.234375 2.804688 -4.101562 2.609375 -3.84375 C 2.410156 -3.59375 2.3125 -3.238281 2.3125 -2.78125 C 2.3125 -2.332031 2.40625 -1.988281 2.59375 -1.75 C 2.78125 -1.507812 3.054688 -1.390625 3.421875 -1.390625 Z M 3.421875 -1.390625 "/></g></g></g><g fill="#5e17eb" fill-opacity="1"><g transform="translate(165.648585, 247.324129)"><g><path d="M 7.71875 -5.734375 C 8.351562 -5.734375 8.828125 -5.535156 9.140625 -5.140625 C 9.453125 -4.742188 9.609375 -4.140625 9.609375 -3.328125 L 9.609375 0 L 7.625 0 L 7.625 -3.28125 C 7.625 -3.601562 7.570312 -3.835938 7.46875 -3.984375 C 7.375 -4.140625 7.207031 -4.21875 6.96875 -4.21875 C 6.695312 -4.21875 6.484375 -4.113281 6.328125 -3.90625 C 6.171875 -3.695312 6.09375 -3.40625 6.09375 -3.03125 L 6.09375 0 L 4.109375 0 L 4.109375 -3.28125 C 4.109375 -3.601562 4.054688 -3.835938 3.953125 -3.984375 C 3.847656 -4.140625 3.679688 -4.21875 3.453125 -4.21875 C 3.171875 -4.21875 2.953125 -4.113281 2.796875 -3.90625 C 2.648438 -3.695312 2.578125 -3.40625 2.578125 -3.03125 L 2.578125 0 L 0.59375 0 L 0.59375 -3.984375 C 0.59375 -4.585938 0.5625 -5.125 0.5 -5.59375 L 2.375 -5.59375 L 2.46875 -4.8125 C 2.644531 -5.113281 2.882812 -5.34375 3.1875 -5.5 C 3.488281 -5.65625 3.835938 -5.734375 4.234375 -5.734375 C 5.035156 -5.734375 5.578125 -5.398438 5.859375 -4.734375 C 6.054688 -5.035156 6.316406 -5.273438 6.640625 -5.453125 C 6.972656 -5.640625 7.332031 -5.734375 7.71875 -5.734375 Z M 7.71875 -5.734375 "/></g></g></g><g fill="#5e17eb" fill-opacity="1"><g transform="translate(175.926399, 247.324129)"><g><path d="M 6.484375 -5.59375 L 6.484375 0 L 4.515625 0 L 4.515625 -0.765625 C 4.359375 -0.492188 4.125 -0.28125 3.8125 -0.125 C 3.507812 0.0195312 3.175781 0.09375 2.8125 0.09375 C 2.332031 0.09375 1.90625 -0.0195312 1.53125 -0.25 C 1.15625 -0.488281 0.863281 -0.828125 0.65625 -1.265625 C 0.445312 -1.703125 0.34375 -2.207031 0.34375 -2.78125 C 0.34375 -3.363281 0.445312 -3.878906 0.65625 -4.328125 C 0.875 -4.773438 1.164062 -5.117188 1.53125 -5.359375 C 1.90625 -5.609375 2.332031 -5.734375 2.8125 -5.734375 C 3.175781 -5.734375 3.507812 -5.65625 3.8125 -5.5 C 4.113281 -5.34375 4.347656 -5.132812 4.515625 -4.875 L 4.515625 -5.59375 Z M 3.421875 -1.390625 C 3.773438 -1.390625 4.046875 -1.507812 4.234375 -1.75 C 4.421875 -2 4.515625 -2.351562 4.515625 -2.8125 C 4.515625 -3.269531 4.421875 -3.617188 4.234375 -3.859375 C 4.046875 -4.109375 3.773438 -4.234375 3.421875 -4.234375 C 3.078125 -4.234375 2.804688 -4.101562 2.609375 -3.84375 C 2.410156 -3.59375 2.3125 -3.238281 2.3125 -2.78125 C 2.3125 -2.332031 2.40625 -1.988281 2.59375 -1.75 C 2.78125 -1.507812 3.054688 -1.390625 3.421875 -1.390625 Z M 3.421875 -1.390625 "/></g></g></g><g fill="#5e17eb" fill-opacity="1"><g transform="translate(183.104407, 247.324129)"><g><path d="M 4.125 -5.71875 C 4.394531 -5.71875 4.601562 -5.675781 4.75 -5.59375 L 4.75 -3.78125 C 4.4375 -3.925781 4.132812 -4 3.84375 -4 C 3 -4 2.578125 -3.601562 2.578125 -2.8125 L 2.578125 0 L 0.59375 0 L 0.59375 -3.984375 C 0.59375 -4.585938 0.5625 -5.125 0.5 -5.59375 L 2.375 -5.59375 L 2.5 -4.65625 C 2.625 -5 2.832031 -5.257812 3.125 -5.4375 C 3.425781 -5.625 3.757812 -5.71875 4.125 -5.71875 Z M 4.125 -5.71875 "/></g></g></g><g fill="#5e17eb" fill-opacity="1"><g transform="translate(187.941069, 247.324129)"><g><path d="M 0.59375 0 L 0.59375 -5.59375 L 2.578125 -5.59375 L 2.578125 0 Z M 0.328125 -8.203125 L 2.40625 -8.203125 L 2.40625 -6.40625 L 0.328125 -6.40625 Z M 0.328125 -8.203125 "/></g></g></g><g fill="#5e17eb" fill-opacity="1"><g transform="translate(191.227824, 247.324129)"><g><path d="M 3.890625 -1.515625 C 4.023438 -1.515625 4.203125 -1.535156 4.421875 -1.578125 L 4.421875 -0.078125 C 4.148438 0.0351562 3.804688 0.09375 3.390625 0.09375 C 2.628906 0.09375 2.050781 -0.117188 1.65625 -0.546875 C 1.269531 -0.972656 1.078125 -1.566406 1.078125 -2.328125 L 1.078125 -4.125 L 0.03125 -4.125 L 0.03125 -5.59375 L 1.078125 -5.59375 L 1.078125 -6.859375 L 3.0625 -7.484375 L 3.0625 -5.59375 L 4.40625 -5.59375 L 4.40625 -4.125 L 3.0625 -4.125 L 3.0625 -2.328125 C 3.0625 -2.054688 3.140625 -1.851562 3.296875 -1.71875 C 3.460938 -1.582031 3.660156 -1.515625 3.890625 -1.515625 Z M 3.890625 -1.515625 "/></g></g></g><g fill="#5e17eb" fill-opacity="1"><g transform="translate(195.910597, 247.324129)"><g><path d="M 6.484375 -5.59375 L 6.484375 0 L 4.515625 0 L 4.515625 -0.765625 C 4.359375 -0.492188 4.125 -0.28125 3.8125 -0.125 C 3.507812 0.0195312 3.175781 0.09375 2.8125 0.09375 C 2.332031 0.09375 1.90625 -0.0195312 1.53125 -0.25 C 1.15625 -0.488281 0.863281 -0.828125 0.65625 -1.265625 C 0.445312 -1.703125 0.34375 -2.207031 0.34375 -2.78125 C 0.34375 -3.363281 0.445312 -3.878906 0.65625 -4.328125 C 0.875 -4.773438 1.164062 -5.117188 1.53125 -5.359375 C 1.90625 -5.609375 2.332031 -5.734375 2.8125 -5.734375 C 3.175781 -5.734375 3.507812 -5.65625 3.8125 -5.5 C 4.113281 -5.34375 4.347656 -5.132812 4.515625 -4.875 L 4.515625 -5.59375 Z M 3.421875 -1.390625 C 3.773438 -1.390625 4.046875 -1.507812 4.234375 -1.75 C 4.421875 -2 4.515625 -2.351562 4.515625 -2.8125 C 4.515625 -3.269531 4.421875 -3.617188 4.234375 -3.859375 C 4.046875 -4.109375 3.773438 -4.234375 3.421875 -4.234375 C 3.078125 -4.234375 2.804688 -4.101562 2.609375 -3.84375 C 2.410156 -3.59375 2.3125 -3.238281 2.3125 -2.78125 C 2.3125 -2.332031 2.40625 -1.988281 2.59375 -1.75 C 2.78125 -1.507812 3.054688 -1.390625 3.421875 -1.390625 Z M 3.421875 -1.390625 "/></g></g></g><g fill="#5e17eb" fill-opacity="1"><g transform="translate(203.088608, 247.324129)"><g><path d="M 4.328125 -5.734375 C 4.992188 -5.734375 5.488281 -5.535156 5.8125 -5.140625 C 6.132812 -4.742188 6.296875 -4.140625 6.296875 -3.328125 L 6.296875 0 L 4.3125 0 L 4.3125 -3.25 C 4.3125 -3.59375 4.25 -3.835938 4.125 -3.984375 C 4.007812 -4.140625 3.832031 -4.21875 3.59375 -4.21875 C 3.289062 -4.21875 3.046875 -4.113281 2.859375 -3.90625 C 2.671875 -3.707031 2.578125 -3.441406 2.578125 -3.109375 L 2.578125 0 L 0.59375 0 L 0.59375 -3.984375 C 0.59375 -4.585938 0.5625 -5.125 0.5 -5.59375 L 2.375 -5.59375 L 2.46875 -4.765625 C 2.6875 -5.078125 2.953125 -5.316406 3.265625 -5.484375 C 3.578125 -5.648438 3.929688 -5.734375 4.328125 -5.734375 Z M 4.328125 -5.734375 "/></g></g></g></svg>